<?xml version="1.0" encoding="iso-8859-1"?>
<!-- Generator: Adobe Illustrator 18.1.1, SVG Export Plug-In . SVG Version: 6.00 Build 0)  -->
<svg version="1.1" id="Capa_1" xmlns="http://www.w3.org/2000/svg" xmlns:xlink="http://www.w3.org/1999/xlink" x="0px" y="0px"
	 viewBox="0 0 509.318 509.318" style="enable-background:new 0 0 509.318 509.318;" xml:space="preserve">
<g>
	<g>
		<path style="fill:#010002;" d="M15.391,270.046c0,132.138,107.118,239.273,239.265,239.273
			c132.13,0,239.273-107.135,239.273-239.273H15.391z"/>
		<path style="fill:#010002;" d="M103.594,252.618h381.88c-2.951-11.738-10.933-21.443-21.508-26.776
			c0.171-1.496,0.447-2.967,0.447-4.519c0-17.168-12.437-31.352-28.791-34.221c0-0.195,0.073-0.398,0.073-0.61
			c0-14.477-9.884-26.556-23.199-30.149c0-0.057,0.008-0.114,0.008-0.163c0-2.91-0.788-5.609-2.057-8.007l57.445-101.436
			c3.503-6.202,1.309-14.071-4.885-17.582c-6.161-3.495-14.054-1.333-17.574,4.869l-57.217,100.989
			c-4.788-5.552-11.77-9.128-19.679-9.128c-0.171,0-0.309,0.057-0.471,0.057c-0.821-3.113-2.691-5.739-5.17-7.584l35.587-101.176
			c2.357-6.722-1.162-14.079-7.893-16.444c-6.739-2.374-14.071,1.171-16.436,7.885L336.876,114.57
			c-3.983-1.861-8.332-2.999-13.038-2.999c-0.171,0-0.366,0.057-0.528,0.057c-1.829-7.072-8.177-12.323-15.794-12.323
			c-4.219,0-8.039,1.642-10.941,4.268c-5.373-2.658-23.5-6.804-37.335,1.049c-1.609,0.91-3.121,1.926-4.576,3.024
			c-1.447-1.097-3.008-2.048-4.552-3.024c-4.999-3.146-24.784-8.104-37.343-1.057c-2.894-2.642-6.706-4.268-10.933-4.268
			c-7.641,0-13.997,5.251-15.794,12.323c-0.203,0-0.382-0.057-0.569-0.057c-8.194,0-15.591,3.219-21.175,8.356
			c-2.495-2.626-5.975-4.267-9.868-4.267c-6.357,0-11.665,4.373-13.168,10.275c-0.163,0-0.309-0.049-0.471-0.049
			c-9.803,0-18.257,5.446-22.76,13.412c-1.236-0.285-2.512-0.471-3.837-0.471c-9.575,0-17.338,7.771-17.338,17.338
			c0,0.065,0.008,0.114,0.008,0.171c-13.347,3.593-23.215,15.672-23.215,30.149c0,0.203,0.057,0.406,0.057,0.61
			c-16.347,2.861-28.791,17.037-28.791,34.213c0,1.544,0.26,3.024,0.455,4.511c-10.6,5.332-18.566,15.046-21.508,26.776
			L103.594,252.618z"/>
	</g>
</g>
<g>
</g>
<g>
</g>
<g>
</g>
<g>
</g>
<g>
</g>
<g>
</g>
<g>
</g>
<g>
</g>
<g>
</g>
<g>
</g>
<g>
</g>
<g>
</g>
<g>
</g>
<g>
</g>
<g>
</g>
</svg>
